<svg width="164" height="77" viewBox="0 0 164 77" fill="none" xmlns="http://www.w3.org/2000/svg">
<path d="M47.3364 54.7142L116.454 53.8676C115.424 55.1845 114.394 81.1875 147.874 74.3784C147.874 74.3784 174.578 56.2453 147.139 40.0405C147.139 40.0405 175.416 30.3938 156.352 6.07874C156.352 6.07874 123.887 -13.1622 117.184 19.8223H45.1365C45.1365 19.8223 33.6194 -3.86051 10.7872 4.38562C10.7872 4.38562 -0.735086 7.98089 0.734957 22.571C2.205 37.1611 16.0255 36.1055 16.0255 36.1055C16.0255 36.1055 -0.98872 42.2353 0.605552 59.7883C2.19982 77.3414 24.4006 74.4046 24.4006 74.4046C24.4006 74.4046 42.2016 75.225 47.3364 54.7142Z" fill="#FDF5E9" stroke="black" stroke-miterlimit="10"/>
<path d="M8.6908 59.574C8.6908 59.574 13.0906 74.5874 29.846 65.918" stroke="black" stroke-miterlimit="10"/>
<path d="M13.9291 61.6904C13.9291 61.6904 15.1869 66.9788 25.4513 65.2857" stroke="black" stroke-miterlimit="10"/>
<path d="M135.203 7.34849C135.203 7.34849 151.119 2.69763 155.1 18.5576" stroke="black" stroke-miterlimit="10"/>
<path d="M141.693 11.3619C141.693 11.3619 145.462 9.88305 148.604 15.5895" stroke="black" stroke-miterlimit="10"/>
<path d="M39.7015 26.4118V29.1919C39.7015 29.1919 38.9406 28.3662 38.0917 29.1919C38.0917 29.1919 38.9095 29.4218 39.2356 29.9496C39.2356 29.9496 38.3194 29.8503 38.0917 30.5453C38.0917 30.5453 38.8785 30.2161 39.2356 30.5453C39.2356 30.5453 38.3505 30.8119 38.2884 31.6009C38.2884 31.6009 38.8112 31.1045 39.5307 31.2717L40.4779 48.9607H45.0226L44.6655 39.1573L49.0808 38.9587L49.2775 42.7891C49.2775 42.7891 48.2629 43.087 47.9679 44.2105C47.9679 44.2105 48.3923 43.6514 49.2775 43.6148C49.2775 43.6148 48.2319 44.0015 48.1646 45.1093C48.1646 45.1093 49.0497 44.2732 49.5052 44.3725C49.5052 44.3725 48.4907 44.8689 48.294 45.8252C48.294 45.8252 48.8478 45.2974 49.5052 45.3288V48.9607H53.2321L52.937 37.6889C52.937 37.6889 53.8222 37.6732 54.7021 36.6176C54.7021 36.6176 53.7549 36.9782 53.2321 36.7848C53.2321 36.7848 54.2777 36.7535 54.9972 35.6979C54.9972 35.6979 53.7549 36.4922 53.1027 36.1943C53.1027 36.1943 53.8895 36.0271 54.376 35.238C54.376 35.238 53.1027 35.933 52.7766 35.6979L52.0881 26.1296L48.7547 26.4275L49.2464 35.933L44.1789 36.1995L44.0495 26.5947L39.7118 26.4223L39.7015 26.4118Z" fill="#C69C6D" stroke="black" stroke-width="0.25" stroke-miterlimit="10"/>
<path d="M62.689 32.2908L62.5596 48.8248C62.5596 48.8248 61.545 50.4762 60.5667 49.0234C60.5667 49.0234 61.0222 49.0234 61.2862 48.0985C61.2862 48.0985 60.6961 48.6942 60.37 48.459C60.37 48.459 61.3846 47.5654 61.2189 47.2049C61.2189 47.2049 60.5667 47.832 60.2044 47.7327C60.2044 47.7327 60.9549 47.0377 60.9239 46.5464C60.9239 46.5464 60.4321 47.3407 60.0387 47.1735L59.8731 44.0381L57.1608 44.1688L57.4558 50.241C57.4558 50.241 61.1516 55.4249 65.1062 50.241L65.9241 38.1644C65.9241 38.1644 66.4158 38.1331 66.8403 37.7046C66.8403 37.7046 66.1208 37.9345 65.862 37.6732C65.862 37.6732 66.8092 37.5426 67.0732 36.9782C67.0732 36.9782 66.1881 37.3754 65.9293 37.1089C65.9293 37.1089 66.5504 37.1089 67.0732 36.2832C67.0732 36.2832 66.157 36.8789 65.862 36.5497L65.7636 32.2908H62.689Z" fill="#C69C6D" stroke="black" stroke-width="0.25" stroke-miterlimit="10"/>
<path d="M62.4613 28.4655C62.4613 28.4655 63.3775 31.7002 65.0442 29.6517C66.711 27.6033 64.2264 26.3857 64.2264 26.3857C64.2264 26.3857 63.4085 26.3178 63.0824 26.6522C63.0824 26.6522 62.5907 26.5843 62.4613 26.1558C62.4613 26.1558 62.1663 26.8142 62.4613 27.0494C62.4613 27.0494 61.8712 27.1486 61.6435 26.6888C61.6435 26.6888 61.4778 27.4831 62.1197 27.7757C62.1197 27.7757 61.9385 28.1729 61.3846 27.9064C61.3846 27.9064 61.9074 28.5334 62.4613 28.4655Z" fill="#C69C6D" stroke="black" stroke-width="0.25" stroke-miterlimit="10"/>
<path d="M74.7496 30.3311C74.7496 30.3311 71.7112 30.5087 71.1884 31.6009V33.942C71.1884 33.942 75.3397 31.4023 77.2031 33.942C79.0666 36.4817 78.0883 38.201 78.0883 38.201L73.6108 38.5197C73.6108 38.5197 70.6035 40.8399 71.1935 43.1863C71.7836 45.5326 74.1026 45.7625 74.1026 45.7625C74.1026 45.7625 78.58 45.7312 79.5945 43.5521C79.5945 43.5521 84.2687 48.7359 88.8134 44.3098V41.0228C88.8134 41.0228 86.3288 44.1164 84.3981 43.0922C84.3981 43.0922 83.6475 43.0504 83.9425 42.4285C83.9425 42.4285 83.3214 42.5644 83.2231 42.8257C83.2231 42.8257 82.928 42.2665 83.7458 41.9321C83.7458 41.9321 83.0264 41.8014 82.5346 42.5905C82.5346 42.5905 82.3069 41.9321 82.664 41.6342C82.664 41.6342 81.7789 42.1881 81.8462 42.4233C81.8462 42.4233 80.961 41.6029 81.1577 38.3682L89.2326 38.2166L88.7771 33.0223C88.7771 33.0223 85.7698 27.6451 81.7789 31.7681L80.1691 33.7173C80.1691 33.7173 78.0831 30.6864 77.2342 30.3363C77.2342 30.3363 77.0375 29.5263 76.4474 29.2964C76.4474 29.2964 76.9391 29.9287 76.7114 30.3363C76.7114 30.3363 76.8097 29.5577 75.7952 29.2964C75.7952 29.2964 76.4163 29.8294 76.2196 30.3363C76.2196 30.3363 76.2507 29.5943 75.3345 29.4584C75.3345 29.4584 76.023 29.9548 75.7279 30.3363H74.7496V30.3311Z" fill="#C69C6D" stroke="black" stroke-width="0.25" stroke-miterlimit="10"/>
<path d="M93.974 31.2351V39.7843C93.974 39.7843 93.0889 39.4551 92.4056 40.4428C92.4056 40.4428 93.5496 40.1135 93.8446 40.4428C93.8446 40.4428 92.8663 40.6727 92.4056 41.4984C92.4056 41.4984 93.5806 40.8033 93.7773 41.1691C93.7773 41.1691 92.7317 41.4356 92.4056 42.0941C92.4056 42.0941 93.4823 41.5663 93.7152 41.8955L93.6169 46.0917H97.1781V35.5933C97.1781 35.5933 97.7009 35.5933 98.2547 34.8983C98.2547 34.8983 97.2092 35.1962 97.0125 35.0655C97.0125 35.0655 97.9908 34.7677 98.2547 34.2712C98.2547 34.2712 97.3696 34.7311 97.1108 34.5012C97.1108 34.5012 98.322 34.104 98.2547 33.6755C98.2547 33.6755 97.5042 34.2347 97.2092 33.8427L97.2764 31.2351H93.974Z" fill="#C69C6D" stroke="black" stroke-width="0.25" stroke-miterlimit="10"/>
<path d="M102.194 30.7492V43.5207C102.194 43.5207 100.957 43.991 100.75 44.8742C100.75 44.8742 101.733 44.0903 102.194 44.5084C102.194 44.5084 100.957 44.7697 100.75 45.449C100.75 45.449 101.681 44.8219 102.194 45.1877C102.194 45.1877 101.21 45.5901 101.164 46.0918C101.164 46.0918 101.63 45.5483 102.194 45.9141V53.0576H105.191V44.4039L110.098 44.1948C110.098 44.1948 114.798 43.9336 114.487 37.1036C114.177 30.2736 108.291 30.7439 108.291 30.7439H106.019C106.019 30.7439 105.812 30.0123 106.64 29.5995C106.64 29.5995 105.507 29.5473 105.196 30.3834C105.196 30.3834 104.627 29.6047 105.248 29.2912C105.248 29.2912 104.316 29.5525 104.523 30.2266C104.523 30.2266 103.643 29.5995 104.213 29.0299C104.213 29.0299 103.027 29.448 103.54 30.3834L102.199 30.7492H102.194Z" fill="#C69C6D" stroke="black" stroke-width="0.25" stroke-miterlimit="10"/>
<path d="M105.962 34.6057V40.5473C105.962 40.5473 109.472 41.744 111.024 39.1938C111.024 39.1938 111.49 37.3701 111.232 37.0565C111.232 37.0565 110.352 37.4223 109.736 37.1088C109.736 37.1088 111.076 37.0565 111.076 36.5862C111.076 36.5862 109.839 36.952 109.632 36.6385C109.632 36.6385 110.512 36.6385 110.564 36.1159C110.564 36.1159 109.943 36.3772 109.378 36.0114C109.378 36.0114 110.362 35.9069 110.362 35.5934C110.362 35.5934 108.97 33.5606 105.973 34.6005L105.962 34.6057Z" fill="#FDF5E9" stroke="black" stroke-width="0.25" stroke-miterlimit="10"/>
<path d="M77.876 40.4428C77.876 40.4428 76.846 40.1293 75.9143 40.4428C75.9143 40.4428 76.2248 41.4357 75.6037 41.744C75.6037 41.744 75.8107 41.3678 75.3966 40.8243C75.3966 40.8243 75.6554 42.0053 75.1378 42.1046C75.1378 42.1046 75.3449 41.2058 74.9308 40.8243C74.9308 40.8243 75.1896 41.9008 74.6202 42.1046C74.6202 42.1046 74.672 40.9602 74.2061 41.0385C74.2061 41.0385 72.9172 41.953 73.5332 43.3588C74.1492 44.7645 76.6803 43.3588 76.6803 43.3588L77.8657 42.8884V40.4376L77.876 40.4428Z" fill="#FDF5E9" stroke="black" stroke-width="0.25" stroke-miterlimit="10"/>
<path d="M85.1538 36.2727H87.1155C87.1155 36.2727 86.0855 32.6775 83.8649 32.9388C81.6443 33.2 81.5925 35.8599 81.5925 35.8599L82.6744 35.9122C82.6744 35.9122 82.7261 35.3896 83.8079 34.8723C83.8079 34.8723 82.9797 35.6561 83.2386 35.9644C83.2386 35.9644 83.751 35.1283 84.3463 34.9715C84.3463 34.9715 83.6475 35.4941 83.8028 35.9122C83.8028 35.9122 84.1133 35.1806 84.8328 35.3373C84.8328 35.3373 84.0046 35.8077 84.3411 36.278H85.1434L85.1538 36.2727Z" fill="#FDF5E9" stroke="black" stroke-width="0.25" stroke-miterlimit="10"/>
<path d="M118.39 48.9189C118.39 48.9189 119.203 51.3018 120.683 49.7968C122.164 48.2918 119.959 47.3878 119.959 47.3878C119.959 47.3878 119.234 47.3408 118.944 47.5811C118.944 47.5811 118.509 47.5341 118.39 47.2153C118.39 47.2153 118.131 47.7013 118.39 47.8738C118.39 47.8738 117.867 47.9469 117.666 47.6073C117.666 47.6073 117.521 48.1925 118.085 48.412C118.085 48.412 117.924 48.7047 117.433 48.5113C117.433 48.5113 117.898 48.9712 118.39 48.9241V48.9189Z" fill="#C69C6D" stroke="black" stroke-width="0.25" stroke-miterlimit="10"/>
<path d="M119.311 31.2351V37.6888C119.311 37.6888 118.613 37.1558 118.147 37.2081C118.147 37.2081 119.032 37.6313 119.311 38.5145C119.311 38.5145 118.664 37.6784 118.147 38.0442C118.147 38.0442 119.079 38.4622 119.027 39.0371C119.027 39.0371 118.406 38.2532 118.147 39.0371C118.147 39.0371 118.613 38.7758 119.027 39.6641L118.732 45.5535H121.196L121.454 31.2403H119.317L119.311 31.2351Z" fill="#C69C6D" stroke="black" stroke-width="0.25" stroke-miterlimit="10"/>
</svg>
